# xmcd CD database file
#
# Track frame offsets:
#	150
#	9442
#	29168
#
# Disc length: 650 seconds
#
# Revision: 0
# Processed by: cddbd v1.5.1PL2 Copyright (c) Steve Scherf et al.
# Submitted via: CDex 1.51
#
DISCID=1d028803
DTITLE=KOTOKO - すぺーすとらぶる主題歌Cd
DYEAR=2006
DGENRE=ゲーム
TTITLE0=↑青春ロケット↑ Short Ver.
TTITLE1=↑青春ロケット↑ Long Ver.
TTITLE2=↑青春ロケット↑ Instrumental
EXTD=YEAR: 2006
EXTT0=
EXTT1=
EXTT2=
PLAYORDER=
